ply
format ascii 1.0
element vertex 100
property float x
property float y
property float z
property uchar red
property uchar green
property uchar blue
end_header
0.473637 -0.031902 0.149199 255 0 255
0.463779 -0.005831 0.148899 255 0 255
0.500831 -0.053889 0.137416 255 0 255
0.471220 0.018873 0.139842 255 0 255
0.503222 -0.048063 0.139303 255 0 255
0.545878 0.005868 0.145123 255 0 255
0.510713 0.023586 0.135825 255 0 255
0.466492 -0.024714 0.131480 255 0 255
0.594749 0.022368 0.144666 255 0 255
0.496172 -0.009651 0.147794 255 0 255
0.465422 -0.018034 0.128777 255 0 255
0.470294 -0.040023 0.142280 255 0 255
0.495714 0.012690 0.146386 255 0 255
0.542743 -0.041577 0.135742 255 0 255
0.460934 -0.011557 0.139847 255 0 255
0.457861 0.012743 0.132555 255 0 255
0.467037 -0.023903 0.126692 255 0 255
0.527922 0.014063 0.146742 255 0 255
0.552715 -0.010711 0.143393 255 0 255
0.473397 -0.047373 0.112190 255 0 255
0.599289 0.014912 0.145239 255 0 255
0.461063 -0.009945 0.142842 255 0 255
0.474372 0.021551 0.133371 255 0 255
0.466045 0.005436 0.146625 255 0 255
0.491923 0.024942 0.134231 255 0 255
0.518573 -0.002720 0.145941 255 0 255
0.523980 0.021779 0.142422 255 0 255
0.546070 0.008517 0.145712 255 0 255
0.558002 -0.029997 0.137709 255 0 255
0.580376 -0.045052 0.101410 255 0 255
0.624268 -0.006365 0.122922 255 0 255
0.568501 0.007908 0.144260 255 0 255
0.489535 -0.001466 0.147906 255 0 255
0.461339 0.018011 0.128186 255 0 255
0.475288 0.022851 0.128860 255 0 255
0.487161 0.026550 0.119178 255 0 255
0.572508 0.006724 0.144168 255 0 255
0.463371 -0.007811 0.148997 255 0 255
0.505885 0.022614 0.138179 255 0 255
0.464540 -0.018095 0.114811 255 0 255
0.525393 0.010183 0.146161 255 0 255
0.469036 0.022214 0.121007 255 0 255
0.494441 -0.031711 0.146623 255 0 255
0.473568 0.021269 0.134831 255 0 255
0.509538 -0.036023 0.142176 255 0 255
0.532253 0.005111 0.145491 255 0 255
0.519370 0.004734 0.146684 255 0 255
0.499495 -0.050202 0.139824 255 0 255
0.560067 -0.017193 0.141918 255 0 255
0.470896 0.033585 0.140405 255 0 255
0.457313 0.004890 0.118335 255 0 255
0.488767 -0.045008 0.144182 255 0 255
0.492272 0.017860 0.145269 255 0 255
0.539891 -0.006020 0.142300 255 0 255
0.518206 -0.055423 0.132530 255 0 255
0.462568 -0.006053 0.124698 255 0 255
0.523830 -0.037088 0.140355 255 0 255
0.476037 -0.015781 0.150850 255 0 255
0.547551 0.025307 0.144701 255 0 255
0.509475 0.025977 0.125594 255 0 255
0.463616 0.004732 0.146840 255 0 255
0.510190 -0.024229 0.144745 255 0 255
0.611233 -0.007522 0.142394 255 0 255
0.469653 -0.040108 0.135089 255 0 255
0.499481 0.024353 0.110217 255 0 255
0.591434 0.017610 0.144449 255 0 255
0.475857 -0.063333 0.132511 255 0 255
0.525696 0.009616 0.146748 255 0 255
0.648607 0.015730 0.125099 255 0 255
0.533821 -0.051870 0.128652 255 0 255
0.462204 -0.006716 0.121881 255 0 255
0.601343 -0.011707 0.139950 255 0 255
0.599758 0.037126 0.126194 255 0 255
0.584158 -0.026510 0.135304 255 0 255
0.556597 -0.047576 0.123798 255 0 255
0.546098 0.015433 0.145317 255 0 255
0.582285 -0.007801 0.142198 255 0 255
0.494667 -0.048729 0.141455 255 0 255
0.552023 0.026423 0.144693 255 0 255
0.492394 0.018626 0.144580 255 0 255
0.468950 0.015339 0.144378 255 0 255
0.507292 0.023484 0.136309 255 0 255
0.591278 -0.032369 0.131035 255 0 255
0.498949 -0.013468 0.147648 255 0 255
0.539263 -0.022363 0.142106 255 0 255
0.475407 -0.061517 0.109987 255 0 255
0.606016 0.033013 0.127807 255 0 255
0.607778 0.046837 0.134196 255 0 255
0.458944 0.014290 0.134319 255 0 255
0.469986 -0.033399 0.116345 255 0 255
0.557440 -0.000885 0.144326 255 0 255
0.535948 -0.044756 0.135363 255 0 255
0.571884 -0.049134 0.117385 255 0 255
0.470019 -0.037243 0.110563 255 0 255
0.467785 0.022280 0.118705 255 0 255
0.603327 0.016454 0.146583 255 0 255
0.475764 -0.057908 0.113149 255 0 255
0.459630 -0.009606 0.109395 255 0 255
0.457884 0.011010 0.137870 255 0 255
0.520590 -0.060381 0.114951 255 0 255
